<?xml version="1.0" encoding="UTF-8"?>
<svg id="Layer_1" data-name="Layer 1" xmlns="http://www.w3.org/2000/svg" xmlns:xlink="http://www.w3.org/1999/xlink" viewBox="0 0 1117.31 150">
  <defs>
    <style>
      .cls-1 {
        fill: url(#linear-gradient);
      }

      .cls-1, .cls-2, .cls-3 {
        stroke-width: 0px;
      }

      .cls-2 {
        fill: url(#linear-gradient-2);
      }

      .cls-3 {
        fill: #fff;
      }
    </style>
    <linearGradient id="linear-gradient" x1="1126.26" y1="98.1" x2="1024.18" y2="39.16" gradientUnits="userSpaceOnUse">
      <stop offset=".6" stop-color="#0054bc"/>
      <stop offset=".8" stop-color="#0e387c"/>
    </linearGradient>
    <linearGradient id="linear-gradient-2" x1="997.4" y1="89.81" x2="1054.66" y2="-9.36" gradientUnits="userSpaceOnUse">
      <stop offset=".55" stop-color="#0054bc"/>
      <stop offset=".85" stop-color="#0dac14"/>
      <stop offset=".99" stop-color="#caef01"/>
    </linearGradient>
  </defs>
  <g>
    <path class="cls-3" d="M86.23,99.05c-3.76-4.82-8.69-8.07-14.7-9.67,5.24-1.83,9.55-4.84,12.82-8.97,3.59-4.53,5.41-10.28,5.41-17.1,0-9.24-3.38-16.67-10.05-22.07-6.64-5.38-15.94-8.1-27.64-8.1H.45c-.25,0-.45.2-.45.45v114.66c0,.25.2.45.45.45h53.41c12.03,0,21.55-2.87,28.3-8.52,6.77-5.67,10.21-13.45,10.21-23.13,0-6.71-2.07-12.77-6.14-18h0ZM56.92,76.6c-2.35,1.94-5.8,2.92-10.25,2.92h-17.84v-23.11h17.84c4.44,0,7.89,1.01,10.24,3,2.33,1.97,3.52,4.88,3.52,8.64s-1.18,6.64-3.51,8.55ZM28.83,100.84h19.8c4.55,0,8.16,1.12,10.73,3.32,2.55,2.19,3.84,5.26,3.84,9.13s-1.24,6.86-3.68,8.88c-2.47,2.05-6.02,3.08-10.57,3.08h-20.13v-24.42Z"/>
    <rect class="cls-3" x="104.68" y="26.93" width="28.83" height="121.76" rx=".45" ry=".45"/>
    <path class="cls-3" d="M242.48,56.66h-27.93c-.25,0-.45.2-.45.45v11.4c-2.59-3.72-6.12-6.8-10.53-9.18-4.89-2.64-10.65-3.97-17.12-3.97-7.56,0-14.51,1.95-20.65,5.79-6.14,3.84-11.06,9.4-14.62,16.51-3.55,7.11-5.36,15.47-5.36,24.86s1.8,17.79,5.35,24.94c3.56,7.18,8.48,12.79,14.62,16.68,6.14,3.89,13.04,5.87,20.49,5.87,6.47,0,12.23-1.34,17.12-3.97,4.42-2.38,8.01-5.48,10.69-9.22v11.44c0,.25.2.45.45.45h27.93c.25,0,.45-.2.45-.45V57.11c0-.25-.2-.45-.45-.45ZM214.11,102.67c0,6.82-1.91,12.26-5.67,16.19-3.76,3.92-8.4,5.9-13.8,5.9s-10.04-2.01-13.8-5.98c-3.77-3.98-5.68-9.45-5.68-16.27s1.91-12.23,5.67-16.1c3.76-3.87,8.4-5.83,13.81-5.83s10.04,1.99,13.8,5.9c3.76,3.93,5.67,9.37,5.67,16.19Z"/>
    <path class="cls-3" d="M300.71,80.09c7.04,0,11.65,3.32,14.11,10.15.06.18.23.3.42.3h29.73c.14,0,.27-.06.35-.17.09-.11.12-.25.09-.38-2.41-10.94-7.55-19.55-15.27-25.57-7.72-6.02-17.46-9.08-28.94-9.08-8.96,0-17.03,1.94-23.98,5.77-6.96,3.84-12.46,9.39-16.35,16.51-3.88,7.11-5.85,15.54-5.85,25.04s1.97,17.93,5.85,25.04c3.89,7.12,9.39,12.68,16.35,16.51,6.95,3.83,15.01,5.77,23.98,5.77,11.37,0,21.08-3.11,28.86-9.24,7.78-6.13,12.94-14.68,15.35-25.41.03-.13,0-.27-.09-.38-.09-.11-.21-.17-.35-.17h-29.73c-.19,0-.36.12-.42.3-2.46,6.83-7.07,10.16-14.11,10.16-4.95,0-8.95-1.95-11.89-5.79-2.97-3.87-4.48-9.52-4.48-16.79s1.51-12.92,4.48-16.79c2.94-3.84,6.95-5.79,11.89-5.79Z"/>
    <path class="cls-3" d="M411.62,102.84l37.65-45.44c.11-.13.14-.32.06-.48-.07-.16-.23-.26-.41-.26h-34.46c-.14,0-.28.07-.36.18l-26.79,35.99V27.38c0-.25-.2-.45-.45-.45h-27.93c-.25,0-.45.2-.45.45v120.86c0,.25.2.45.45.45h27.93c.25,0,.45-.2.45-.45v-36.83l26.95,37.1c.08.12.22.19.36.19h34.63c.17,0,.33-.1.41-.26s.05-.35-.06-.48l-37.98-45.12Z"/>
    <path class="cls-3" d="M537.36,61.13c-6.14-3.84-13.09-5.79-20.65-5.79-6.36,0-12.09,1.34-17.03,3.97h0c-4.45,2.37-8.01,5.46-10.61,9.18V27.38c0-.25-.2-.45-.45-.45h-27.93c-.25,0-.45.2-.45.45v120.86c0,.25.2.45.45.45h27.93c.25,0,.45-.2.45-.45v-11.28c2.68,3.74,6.24,6.81,10.61,9.14,4.84,2.58,10.57,3.89,17.03,3.89,7.56,0,14.51-1.97,20.66-5.87,6.14-3.89,11.06-9.5,14.62-16.68,3.55-7.16,5.36-15.56,5.36-24.94s-1.8-17.75-5.36-24.86c-3.56-7.12-8.48-12.67-14.62-16.51ZM528.02,102.51c0,6.82-1.94,12.29-5.75,16.27-3.81,3.97-8.48,5.99-13.88,5.99s-10.05-1.99-13.8-5.91c-3.76-3.92-5.67-9.37-5.67-16.18s1.91-12.26,5.67-16.19c3.76-3.92,8.4-5.9,13.8-5.9s10.21,1.96,13.97,5.83c3.76,3.87,5.67,9.29,5.67,16.1Z"/>
    <path class="cls-3" d="M638.87,61.12c-7.22-3.83-15.42-5.77-24.38-5.77s-17.16,1.94-24.38,5.77c-7.23,3.84-13,9.42-17.16,16.59-4.16,7.17-6.27,15.57-6.27,24.97s2.08,17.94,6.19,25.05c4.11,7.12,9.83,12.67,17,16.51,7.16,3.83,15.34,5.77,24.3,5.77s17.19-1.94,24.46-5.77c7.28-3.83,13.11-9.41,17.33-16.58,4.21-7.17,6.35-15.57,6.35-24.97s-2.11-17.8-6.27-24.97c-4.16-7.17-9.94-12.75-17.16-16.59ZM627.48,119.19c-3.65,3.81-8.13,5.74-13.31,5.74s-9.54-1.93-12.98-5.73c-3.45-3.82-5.19-9.37-5.19-16.52s1.77-12.84,5.27-16.6c3.49-3.75,7.94-5.66,13.23-5.66s9.6,1.93,13.14,5.74c3.55,3.82,5.35,9.37,5.35,16.52s-1.85,12.7-5.51,16.51Z"/>
    <path class="cls-3" d="M768.29,56.66h-27.93c-.25,0-.45.2-.45.45v11.4c-2.59-3.72-6.12-6.8-10.53-9.18-4.89-2.64-10.65-3.97-17.12-3.97-7.56,0-14.51,1.95-20.65,5.79-6.14,3.84-11.06,9.4-14.62,16.51-3.55,7.11-5.36,15.47-5.36,24.86s1.8,17.79,5.35,24.94c3.56,7.18,8.48,12.79,14.62,16.68,6.14,3.89,13.04,5.87,20.49,5.87,6.47,0,12.23-1.34,17.12-3.97,4.42-2.38,8.01-5.48,10.69-9.22v11.44c0,.25.2.45.45.45h27.93c.25,0,.45-.2.45-.45V57.11c0-.25-.2-.45-.45-.45ZM739.92,102.67c0,6.82-1.91,12.26-5.67,16.19-3.76,3.92-8.4,5.9-13.8,5.9s-10.04-2.01-13.8-5.98c-3.77-3.98-5.68-9.45-5.68-16.27s1.91-12.23,5.67-16.1c3.76-3.87,8.4-5.83,13.81-5.83s10.04,1.99,13.8,5.9c3.76,3.93,5.67,9.37,5.67,16.19Z"/>
    <path class="cls-3" d="M844.97,55.68c-6.04,0-11.61,1.48-16.56,4.39-4.53,2.67-8.42,6.29-11.57,10.76v-13.72c0-.25-.2-.45-.45-.45h-27.93c-.25,0-.45.2-.45.45v91.14c0,.25.2.45.45.45h27.93c.25,0,.45-.2.45-.45v-42.3c0-7.34,1.71-12.53,5.07-15.42,3.38-2.91,8.56-4.38,15.39-4.38h7.68c.25,0,.45-.2.45-.45v-29.56c0-.25-.2-.45-.45-.45Z"/>
    <path class="cls-3" d="M949.83,26.93h-27.93c-.25,0-.45.2-.45.45v40.88c-2.79-3.75-6.49-6.81-11.03-9.11-5-2.52-10.59-3.8-16.62-3.8-7.56,0-14.51,1.95-20.65,5.79-6.14,3.84-11.06,9.4-14.62,16.51-3.55,7.11-5.36,15.47-5.36,24.86s1.8,17.79,5.36,24.94c3.56,7.18,8.48,12.79,14.62,16.68,6.14,3.89,13.09,5.87,20.66,5.87,6.47,0,12.23-1.34,17.12-3.97,4.4-2.38,7.94-5.5,10.53-9.31v11.53c0,.25.2.45.45.45h27.93c.25,0,.45-.2.45-.45V27.38c0-.25-.2-.45-.45-.45ZM921.45,102.67c0,6.82-1.91,12.26-5.67,16.19-3.76,3.92-8.4,5.9-13.8,5.9s-10.04-2.01-13.8-5.98c-3.77-3.98-5.67-9.45-5.67-16.27s1.91-12.23,5.67-16.1c3.76-3.87,8.4-5.83,13.81-5.83s10.04,1.99,13.8,5.9c3.76,3.93,5.67,9.37,5.67,16.19Z"/>
  </g>
  <g>
    <polygon class="cls-1" points="1070.86 0 1117.31 80.46 1074.1 80.46 1049.25 37.42 1024.41 80.46 981.2 80.46 1027.65 0 1070.86 0"/>
    <polygon class="cls-2" points="1070.86 0 1024.41 80.46 981.2 80.46 1027.65 0 1070.86 0"/>
  </g>
</svg>