<svg width="38" height="30" viewBox="0 0 38 30" fill="none" xmlns="http://www.w3.org/2000/svg">
<path d="M11.8359 16.875H20.625C21.6211 16.875 22.5 16.0547 22.5 15V3.75C22.5 2.75391 21.6211 1.875 20.625 1.875H3.75C2.69531 1.875 1.875 2.75391 1.875 3.75V15C1.875 16.0547 2.69531 16.875 3.75 16.875H5.625C6.62109 16.875 7.5 17.7539 7.5 18.75V19.6875L10.7227 17.2852C11.0742 17.0508 11.4258 16.875 11.8359 16.875ZM20.625 18.75H11.8359L7.08984 22.3242C6.79688 22.5586 6.44531 22.5586 6.09375 22.4414C5.80078 22.2656 5.625 21.9727 5.625 21.5625V18.75H3.75C1.64062 18.75 0 17.1094 0 15V3.75C0 1.69922 1.64062 0 3.75 0H20.625C22.6758 0 24.375 1.69922 24.375 3.75V15C24.375 17.1094 22.6758 18.75 20.625 18.75ZM18.75 26.25C16.6406 26.25 15 24.6094 15 22.5V20.625H16.875V22.5C16.875 23.5547 17.6953 24.375 18.75 24.375H25.6055C26.0156 24.375 26.4258 24.5508 26.7188 24.7852L30 27.1875V26.25C30 25.2539 30.8203 24.375 31.875 24.375H33.75C34.7461 24.375 35.625 23.5547 35.625 22.5V11.25C35.625 10.2539 34.7461 9.375 33.75 9.375H26.25V7.5H33.75C35.8008 7.5 37.5 9.19922 37.5 11.25V22.5C37.5 24.6094 35.8008 26.25 33.75 26.25H31.875V29.0625C31.875 29.4727 31.6406 29.7656 31.3477 29.9414C30.9961 30.0586 30.6445 30.0586 30.3516 29.8242L25.6055 26.25H18.75Z" fill="#0054BC"/>
</svg>