<svg width="34" height="30" viewBox="0 0 34 30" fill="none" xmlns="http://www.w3.org/2000/svg">
<path d="M30 1.875H3.75C2.69531 1.875 1.875 2.75391 1.875 3.75V20.625C1.875 21.6797 2.69531 22.5 3.75 22.5H30C30.9961 22.5 31.875 21.6797 31.875 20.625V3.75C31.875 2.75391 30.9961 1.875 30 1.875ZM3.75 24.375C1.64062 24.375 0 22.7344 0 20.625V3.75C0 1.69922 1.64062 0 3.75 0H30C32.0508 0 33.75 1.69922 33.75 3.75V20.625C33.75 22.7344 32.0508 24.375 30 24.375H21.2109L21.8555 28.125H25.3125C25.7812 28.125 26.25 28.5938 26.25 29.0625C26.25 29.5898 25.7812 30 25.3125 30H8.4375C7.91016 30 7.5 29.5898 7.5 29.0625C7.5 28.5938 7.91016 28.125 8.4375 28.125H11.8359L12.4805 24.375H3.75ZM13.7109 28.125H19.9805L19.3359 24.375H14.3555L13.7109 28.125ZM14.707 9.14062L11.6016 12.1875L14.707 15.293C15.0586 15.6445 15.0586 16.2891 14.707 16.6406C14.3555 16.9922 13.7109 16.9922 13.3594 16.6406L9.60938 12.8906C9.25781 12.5391 9.25781 11.8945 9.60938 11.543L13.3594 7.79297C13.7109 7.44141 14.3555 7.44141 14.707 7.79297C15.0586 8.14453 15.0586 8.78906 14.707 9.14062ZM20.332 7.79297L24.082 11.543C24.4336 11.8945 24.4336 12.5391 24.082 12.8906L20.332 16.6406C19.9805 16.9922 19.3359 16.9922 18.9844 16.6406C18.6328 16.2891 18.6328 15.6445 18.9844 15.293L22.0898 12.1875L18.9844 9.14062C18.6328 8.78906 18.6328 8.14453 18.9844 7.79297C19.3359 7.44141 19.9805 7.44141 20.332 7.79297Z" fill="#0054BC"/>
</svg>