<?xml version="1.0" encoding="UTF-8"?>
<svg id="Layer_1" data-name="Layer 1" xmlns="http://www.w3.org/2000/svg" xmlns:xlink="http://www.w3.org/1999/xlink" viewBox="0 0 822.51 150">
  <defs>
    <style>
      .cls-1 {
        fill: url(#linear-gradient);
      }

      .cls-1, .cls-2, .cls-3 {
        stroke-width: 0px;
      }

      .cls-2 {
        fill: url(#linear-gradient-2);
      }

      .cls-3 {
        fill: #fff;
      }
    </style>
    <linearGradient id="linear-gradient" x1="831.46" y1="98.1" x2="729.37" y2="39.16" gradientUnits="userSpaceOnUse">
      <stop offset=".6" stop-color="#0054bc"/>
      <stop offset=".8" stop-color="#0e387c"/>
    </linearGradient>
    <linearGradient id="linear-gradient-2" x1="702.59" y1="89.81" x2="759.85" y2="-9.36" gradientUnits="userSpaceOnUse">
      <stop offset=".55" stop-color="#0054bc"/>
      <stop offset=".85" stop-color="#0dac14"/>
      <stop offset=".99" stop-color="#caef01"/>
    </linearGradient>
  </defs>
  <path class="cls-3" d="M70.68,87.03c-4.63-2.28-10.73-4.7-18.12-7.22-7.29-2.37-12.72-4.61-16.14-6.66-3.33-1.99-4.93-4.7-4.91-8.28.02-3.22,1.01-5.72,2.95-7.43,1.95-1.71,4.55-2.58,7.74-2.58,3.72,0,6.81,1.04,9.18,3.08,2.37,2.04,3.69,4.88,3.91,8.43.01.24.21.42.45.42h29.87c.12,0,.24-.05.33-.14.08-.09.13-.21.12-.34-.78-10.84-5.09-19.45-12.82-25.58-7.68-6.08-17.79-9.17-30.07-9.17h-.03c-12.04,0-22.04,3.09-29.73,9.17-7.75,6.14-11.8,14.7-12.03,25.44-.16,7.28,1.44,13.26,4.75,17.77,3.3,4.5,7.37,7.96,12.08,10.27,4.67,2.29,10.8,4.61,18.22,6.89,5.1,1.51,9.1,2.88,11.87,4.07,2.74,1.17,5.08,2.68,6.97,4.49,1.84,1.76,2.78,4.01,2.8,6.71.02,3.27-1.1,5.74-3.43,7.57-2.33,1.83-5.59,2.76-9.7,2.76h-.01c-3.97,0-7.22-1.09-9.66-3.24-2.43-2.14-3.87-5.31-4.27-9.43-.02-.23-.22-.41-.45-.41H.45c-.12,0-.23.05-.32.13-.08.09-.13.2-.13.32.05,7.61,2.1,14.19,6.09,19.55,3.99,5.38,9.49,9.5,16.35,12.25,6.82,2.73,14.68,4.12,23.36,4.12,8.93,0,16.74-1.61,23.21-4.79,6.5-3.18,11.48-7.53,14.8-12.92,3.31-5.36,4.91-11.44,4.76-18.06-.15-6.92-2.02-12.67-5.56-17.11-3.5-4.39-7.65-7.79-12.34-10.09Z"/>
  <path class="cls-3" d="M157.16,124.09h-9.97c-2.92,0-5.02-.57-6.23-1.68-1.2-1.1-1.82-2.97-1.82-5.55v-36.17h17.86c.25,0,.45-.2.45-.45v-23.21c0-.25-.2-.45-.45-.45h-17.86v-21.78c0-.25-.2-.45-.45-.45h-27.95c-.25,0-.45.2-.45.45v21.78h-10.67c-.25,0-.45.2-.45.45v23.21c0,.25.2.45.45.45h10.67v35.84c0,11.31,2.91,19.59,8.65,24.61,5.72,5.01,13.8,7.55,24,7.55h14.22c.25,0,.45-.2.45-.45v-23.7c0-.25-.2-.45-.45-.45Z"/>
  <path class="cls-3" d="M264.4,56.57h-27.95c-.25,0-.45.2-.45.45v49.53c0,5.96-1.55,10.64-4.62,13.91-3.06,3.27-7.29,4.93-12.59,4.93s-9.37-1.66-12.42-4.93c-3.07-3.27-4.62-7.95-4.62-13.91v-49.53c0-.25-.2-.45-.45-.45h-27.79c-.25,0-.45.2-.45.45v53.29c0,7.99,1.5,15.04,4.46,20.96,2.97,5.94,7.21,10.54,12.6,13.67,5.38,3.13,11.67,4.72,18.7,4.72,5.93,0,11.41-1.25,16.31-3.73,4.44-2.25,8.09-5.19,10.87-8.76v11.06c0,.25.2.45.45.45h27.95c.25,0,.45-.2.45-.45V57.02c0-.25-.2-.45-.45-.45Z"/>
  <path class="cls-3" d="M374.25,26.82h-27.95c-.25,0-.45.2-.45.45v40.92c-2.79-3.76-6.49-6.82-11.04-9.12-5-2.53-10.6-3.81-16.63-3.81-7.57,0-14.53,1.95-20.67,5.79-6.15,3.84-11.07,9.4-14.63,16.53-3.56,7.11-5.36,15.49-5.36,24.89s1.8,17.8,5.36,24.97c3.56,7.18,8.48,12.8,14.63,16.69,6.15,3.9,13.1,5.87,20.68,5.87,6.48,0,12.24-1.34,17.13-3.98,4.41-2.38,7.94-5.51,10.53-9.32v11.54c0,.25.2.45.45.45h27.95c.25,0,.45-.2.45-.45V27.27c0-.25-.2-.45-.45-.45ZM345.84,102.63c0,6.82-1.91,12.27-5.68,16.2-3.76,3.92-8.41,5.91-13.82,5.91s-10.05-2.02-13.81-5.99c-3.77-3.98-5.68-9.46-5.68-16.28s1.91-12.24,5.68-16.11c3.76-3.87,8.41-5.83,13.82-5.83s10.05,1.99,13.82,5.91c3.77,3.93,5.68,9.38,5.68,16.2Z"/>
  <path class="cls-3" d="M457.34,60.88c-6.9-3.72-14.9-5.61-23.75-5.61s-17.24,1.94-24.25,5.78c-7.02,3.84-12.55,9.4-16.44,16.53-3.89,7.12-5.86,15.55-5.86,25.06s2,17.95,5.94,25.07c3.95,7.13,9.51,12.69,16.53,16.52,7,3.83,15.11,5.78,24.08,5.78,7.44,0,14.27-1.39,20.29-4.13,6.03-2.74,11.11-6.57,15.12-11.4,4-4.82,6.81-10.33,8.35-16.36.03-.13,0-.28-.08-.39s-.22-.17-.36-.17h-29.75c-.18,0-.33.1-.41.26-2.67,5.76-7.3,8.57-14.14,8.57-4.55,0-8.43-1.47-11.54-4.38-3.03-2.82-4.8-6.93-5.29-12.22h62.77c.23,0,.42-.17.45-.4.33-2.84.49-5.6.49-8.23,0-9.19-1.97-17.35-5.86-24.25-3.89-6.91-9.37-12.3-16.28-16.03ZM433.26,78.56c4.77,0,8.79,1.39,11.97,4.14,3.05,2.64,4.64,6.23,4.74,10.65h-34c.8-4.63,2.72-8.27,5.73-10.81,3.12-2.64,7.01-3.98,11.56-3.98Z"/>
  <path class="cls-3" d="M548.91,55.59c-6.03,0-11.55,1.2-16.38,3.56-4.4,2.15-8.02,5.04-10.79,8.6v-10.73c0-.25-.2-.45-.45-.45h-27.95c-.25,0-.45.2-.45.45v91.22c0,.25.2.45.45.45h27.95c.25,0,.45-.2.45-.45v-49.53c0-5.96,1.55-10.64,4.62-13.91,3.06-3.27,7.24-4.93,12.42-4.93s9.36,1.66,12.42,4.93c3.07,3.28,4.62,7.96,4.62,13.91v49.53c0,.25.2.45.45.45h27.79c.25,0,.45-.2.45-.45v-53.29c0-12.16-3.26-21.86-9.68-28.83-6.43-6.98-15.15-10.53-25.91-10.53Z"/>
  <path class="cls-3" d="M655.17,124.09h-9.97c-2.92,0-5.02-.57-6.23-1.68-1.2-1.1-1.82-2.97-1.82-5.55v-36.17h17.86c.25,0,.45-.2.45-.45v-23.21c0-.25-.2-.45-.45-.45h-17.86v-21.78c0-.25-.2-.45-.45-.45h-27.95c-.25,0-.45.2-.45.45v21.78h-10.67c-.25,0-.45.2-.45.45v23.21c0,.25.2.45.45.45h10.67v35.84c0,11.31,2.91,19.59,8.65,24.61,5.72,5.01,13.8,7.55,24,7.55h14.22c.25,0,.45-.2.45-.45v-23.7c0-.25-.2-.45-.45-.45Z"/>
  <g>
    <polygon class="cls-1" points="776.05 0 822.51 80.46 779.3 80.46 754.45 37.42 729.6 80.46 686.39 80.46 732.84 0 776.05 0"/>
    <polygon class="cls-2" points="776.05 0 729.6 80.46 686.39 80.46 732.84 0 776.05 0"/>
  </g>
</svg>