<?xml version="1.0" encoding="UTF-8" standalone="no"?>
<!DOCTYPE svg PUBLIC "-//W3C//DTD SVG 1.1//EN" "http://www.w3.org/Graphics/SVG/1.1/DTD/svg11.dtd">
<svg width="100%" height="100%" viewBox="0 0 450 450" version="1.1" xmlns="http://www.w3.org/2000/svg" xmlns:xlink="http://www.w3.org/1999/xlink" xml:space="preserve" xmlns:serif="http://www.serif.com/" style="fill-rule:evenodd;clip-rule:evenodd;stroke-linecap:round;stroke-linejoin:round;stroke-miterlimit:1.5;">
    <g id="BACKDROP" transform="matrix(1.87112,0,0,1.87112,-2788.66,-2089.07)">
        <g transform="matrix(1,0,0,1,-0.47033,0)">
            <path d="M1706.73,1298.39C1686.33,1330.93 1650.15,1352.58 1608.95,1352.58C1567.75,1352.58 1531.57,1330.93 1511.17,1298.39L1706.73,1298.39Z" style="fill:rgb(140,140,140);"/>
        </g>
        <path d="M1523.31,1314.98C1518.63,1309.85 1514.41,1304.3 1510.7,1298.39L1706.26,1298.39C1702.55,1304.3 1698.33,1309.85 1693.64,1314.98L1523.31,1314.98Z" style="fill:rgb(110,110,110);"/>
        <g transform="matrix(1,0,0,1,-0.471798,0)">
            <path d="M1511.17,1298.39C1500.06,1280.67 1493.63,1259.7 1493.63,1237.25C1493.63,1173.61 1545.3,1121.93 1608.95,1121.93C1672.6,1121.93 1724.27,1173.61 1724.27,1237.25C1724.27,1259.7 1717.84,1280.67 1706.73,1298.39L1511.17,1298.39Z" style="fill:rgb(230,245,255);"/>
        </g>
        <g transform="matrix(0.899284,0,0,0.899284,160.747,130.044)">
            <path d="M1485.96,1299.41L1739.45,1299.41" style="fill:none;stroke:rgb(149,149,149);stroke-width:6.19px;"/>
        </g>
    </g>
    <g id="CPU" transform="matrix(1,0,0,1,-1425,-1050)">
        <g transform="matrix(1.87112,0,0,1.87112,-1363.66,-1039.07)">
            <path d="M1704.57,1246.94L1509.92,1246.94L1509.92,1142.83C1509.92,1138.45 1513.48,1134.89 1517.86,1134.89L1696.63,1134.89C1701.01,1134.89 1704.57,1138.45 1704.57,1142.83L1704.57,1246.94Z" style="fill:rgb(52,52,51);"/>
        </g>
        <g transform="matrix(1.87112,0,0,1.87112,-1363.66,-1039.07)">
            <path d="M1509.92,1246.94L1704.57,1246.94L1704.57,1259.33C1704.57,1263.72 1701.01,1267.28 1696.63,1267.28L1517.86,1267.28C1513.48,1267.28 1509.92,1263.72 1509.92,1259.33L1509.92,1246.94Z" style="fill:rgb(217,217,217);"/>
        </g>
        <g transform="matrix(1.87112,0,0,1.87112,-1363.66,-1039.07)">
            <rect x="1576.99" y="1285.13" width="62.143" height="8.037" style="fill:rgb(219,219,219);"/>
        </g>
        <g transform="matrix(1.87112,0,0,1.87112,-1363.66,-1039.07)">
            <path d="M1608.07,1285.13L1608.07,1267.14L1621.88,1267.14C1621.88,1267.14 1621.3,1275.51 1624.93,1285.16L1608.07,1285.13Z" style="fill:rgb(186,186,186);"/>
        </g>
        <g transform="matrix(-1.87112,0,0,1.87112,4654.01,-1039.07)">
            <path d="M1608.07,1285.13L1608.07,1267.14L1621.88,1267.14C1621.88,1267.14 1621.3,1275.51 1624.93,1285.16L1608.07,1285.13Z" style="fill:rgb(186,186,186);"/>
        </g>
        <g transform="matrix(1.87112,0,0,1.87112,-938.912,-1039.07)">
            <circle cx="1380.12" cy="1256.3" r="5.447" style="fill:rgb(65,65,66);"/>
        </g>
        <g transform="matrix(1.87112,0,0,1.87112,-940.336,-1039.07)">
            <rect x="1294.04" y="1145.21" width="174.474" height="94.49" style="fill:rgb(65,65,66);"/>
        </g>
        <g transform="matrix(1.87112,0,0,1.87112,-969.68,-1039.07)">
            <path d="M1380.48,1159.84L1322.08,1159.84L1322.08,1156.13C1322.08,1154.32 1323.55,1152.85 1325.37,1152.85L1377.19,1152.85C1379.01,1152.85 1380.48,1154.32 1380.48,1156.13L1380.48,1159.84Z" style="fill:rgb(52,52,51);"/>
        </g>
        <g transform="matrix(1.87112,0,0,1.87112,-969.68,-1039.07)">
            <path d="M1322.08,1159.84L1380.48,1159.84L1380.48,1213.24C1380.48,1215.06 1379.01,1216.53 1377.19,1216.53L1325.37,1216.53C1323.55,1216.53 1322.08,1215.06 1322.08,1213.24L1322.08,1159.84Z" style="fill:rgb(140,137,137);"/>
        </g>
        <g transform="matrix(1.87112,0,0,1.87112,-1363.66,-1039.07)">
            <rect x="1554.02" y="1170.91" width="108.707" height="68.026" style="fill:white;"/>
        </g>
        <g transform="matrix(3.48267,0,0,1.87112,-3060.26,-1018.36)">
            <path d="M1380.48,1159.84L1322.08,1159.84L1322.08,1156.13C1322.08,1154.32 1323.55,1152.85 1325.37,1152.85L1377.19,1152.85C1379.01,1152.85 1380.48,1154.32 1380.48,1156.13L1380.48,1159.84Z" style="fill:rgb(52,52,51);"/>
        </g>
        <g transform="matrix(1.87112,0,0,1.87112,-938.596,-1039.07)">
            <circle cx="1331.01" cy="1167.94" r="1.513" style="fill:rgb(254,95,87);"/>
        </g>
        <g transform="matrix(1.87112,0,0,1.87112,-928.555,-1039.07)">
            <circle cx="1331.01" cy="1167.94" r="1.513" style="fill:rgb(255,187,48);"/>
        </g>
        <g transform="matrix(1.87112,0,0,1.87112,-918.514,-1039.07)">
            <circle cx="1331.01" cy="1167.94" r="1.513" style="fill:rgb(43,200,64);"/>
        </g>
        <g transform="matrix(1.87112,0,0,0.781606,-1363.66,306.566)">
            <rect x="1553.9" y="1229.92" width="108.894" height="16.942" style="fill:rgb(12,13,14);"/>
        </g>
        <g transform="matrix(0.0971087,0,0,0.0971087,1400.7,1026.31)">
            <g transform="matrix(50,0,0,50,1604.31,1367.26)">
                <path d="M0.718,-0L0.561,-0L0.499,-0.163L0.212,-0.163L0.153,-0L0,-0L0.279,-0.716L0.432,-0.716L0.718,-0ZM0.452,-0.283L0.354,-0.549L0.257,-0.283L0.452,-0.283Z" style="fill:rgb(10,0,0);fill-rule:nonzero;"/>
            </g>
            <g transform="matrix(50,0,0,50,1640.42,1367.26)">
                <path d="M0.543,-0L0.406,-0L0.406,-0.265C0.406,-0.321 0.403,-0.357 0.397,-0.373C0.392,-0.39 0.382,-0.403 0.369,-0.412C0.356,-0.421 0.34,-0.425 0.321,-0.425C0.298,-0.425 0.276,-0.419 0.257,-0.406C0.238,-0.393 0.226,-0.375 0.219,-0.354C0.212,-0.333 0.208,-0.293 0.208,-0.235L0.208,-0L0.071,-0L0.071,-0.519L0.198,-0.519L0.198,-0.442C0.243,-0.501 0.3,-0.53 0.369,-0.53C0.399,-0.53 0.427,-0.525 0.452,-0.514C0.477,-0.503 0.496,-0.489 0.509,-0.472C0.522,-0.455 0.531,-0.436 0.536,-0.415C0.541,-0.393 0.543,-0.362 0.543,-0.322L0.543,-0Z" style="fill:rgb(10,0,0);fill-rule:nonzero;"/>
            </g>
            <g transform="matrix(50,0,0,50,1670.96,1367.26)">
                <path d="M0.31,-0.519L0.31,-0.409L0.216,-0.409L0.216,-0.2C0.216,-0.158 0.217,-0.133 0.219,-0.126C0.22,-0.119 0.224,-0.113 0.231,-0.109C0.237,-0.104 0.245,-0.102 0.254,-0.102C0.267,-0.102 0.285,-0.106 0.309,-0.115L0.321,-0.009C0.289,0.005 0.253,0.012 0.212,0.012C0.188,0.012 0.165,0.008 0.146,-0.001C0.126,-0.009 0.111,-0.02 0.102,-0.033C0.093,-0.046 0.086,-0.064 0.083,-0.086C0.08,-0.102 0.078,-0.135 0.078,-0.183L0.078,-0.409L0.015,-0.409L0.015,-0.519L0.078,-0.519L0.078,-0.622L0.216,-0.702L0.216,-0.519L0.31,-0.519Z" style="fill:rgb(10,0,0);fill-rule:nonzero;"/>
            </g>
            <g transform="matrix(50,0,0,50,1687.61,1367.26)">
                <path d="M0.208,-0.716L0.208,-0.453C0.253,-0.504 0.306,-0.53 0.367,-0.53C0.399,-0.53 0.427,-0.524 0.453,-0.513C0.478,-0.501 0.497,-0.486 0.51,-0.468C0.523,-0.45 0.532,-0.429 0.536,-0.407C0.541,-0.385 0.543,-0.351 0.543,-0.304L0.543,-0L0.406,-0L0.406,-0.274C0.406,-0.328 0.404,-0.363 0.398,-0.377C0.393,-0.392 0.384,-0.404 0.371,-0.412C0.358,-0.421 0.341,-0.425 0.321,-0.425C0.299,-0.425 0.278,-0.42 0.26,-0.409C0.242,-0.398 0.229,-0.381 0.221,-0.359C0.213,-0.336 0.208,-0.303 0.208,-0.26L0.208,-0L0.071,-0L0.071,-0.716L0.208,-0.716Z" style="fill:rgb(10,0,0);fill-rule:nonzero;"/>
            </g>
            <g transform="matrix(50,0,0,50,1718.15,1367.26)">
                <path d="M0.04,-0.267C0.04,-0.312 0.051,-0.356 0.074,-0.399C0.096,-0.442 0.128,-0.474 0.169,-0.497C0.21,-0.519 0.256,-0.53 0.307,-0.53C0.386,-0.53 0.45,-0.505 0.5,-0.454C0.55,-0.403 0.575,-0.339 0.575,-0.261C0.575,-0.182 0.55,-0.117 0.499,-0.066C0.449,-0.014 0.385,0.012 0.308,0.012C0.261,0.012 0.215,0.001 0.172,-0.021C0.129,-0.042 0.096,-0.073 0.074,-0.115C0.051,-0.156 0.04,-0.207 0.04,-0.267ZM0.181,-0.259C0.181,-0.208 0.193,-0.168 0.217,-0.141C0.242,-0.114 0.272,-0.1 0.308,-0.1C0.343,-0.1 0.373,-0.114 0.398,-0.141C0.422,-0.168 0.434,-0.208 0.434,-0.26C0.434,-0.311 0.422,-0.35 0.398,-0.377C0.373,-0.405 0.343,-0.418 0.308,-0.418C0.272,-0.418 0.242,-0.405 0.217,-0.377C0.193,-0.35 0.181,-0.311 0.181,-0.259Z" style="fill:rgb(10,0,0);fill-rule:nonzero;"/>
            </g>
            <g transform="matrix(50,0,0,50,1748.7,1367.26)">
                <rect x="0.072" y="-0.716" width="0.137" height="0.716" style="fill:rgb(10,0,0);fill-rule:nonzero;"/>
            </g>
            <g transform="matrix(50,0,0,50,1762.59,1367.26)">
                <path d="M0.04,-0.267C0.04,-0.312 0.051,-0.356 0.074,-0.399C0.096,-0.442 0.128,-0.474 0.169,-0.497C0.21,-0.519 0.256,-0.53 0.307,-0.53C0.386,-0.53 0.45,-0.505 0.5,-0.454C0.55,-0.403 0.575,-0.339 0.575,-0.261C0.575,-0.182 0.55,-0.117 0.499,-0.066C0.449,-0.014 0.385,0.012 0.308,0.012C0.261,0.012 0.215,0.001 0.172,-0.021C0.129,-0.042 0.096,-0.073 0.074,-0.115C0.051,-0.156 0.04,-0.207 0.04,-0.267ZM0.181,-0.259C0.181,-0.208 0.193,-0.168 0.217,-0.141C0.242,-0.114 0.272,-0.1 0.308,-0.1C0.343,-0.1 0.373,-0.114 0.398,-0.141C0.422,-0.168 0.434,-0.208 0.434,-0.26C0.434,-0.311 0.422,-0.35 0.398,-0.377C0.373,-0.405 0.343,-0.418 0.308,-0.418C0.272,-0.418 0.242,-0.405 0.217,-0.377C0.193,-0.35 0.181,-0.311 0.181,-0.259Z" style="fill:rgb(10,0,0);fill-rule:nonzero;"/>
            </g>
            <g transform="matrix(50,0,0,50,1793.13,1367.26)">
                <path d="M0.059,0.034L0.216,0.053C0.218,0.071 0.224,0.084 0.234,0.091C0.247,0.101 0.267,0.105 0.295,0.105C0.331,0.105 0.358,0.1 0.376,0.089C0.388,0.082 0.397,0.071 0.403,0.055C0.408,0.043 0.41,0.022 0.41,-0.008L0.41,-0.084C0.369,-0.028 0.317,-0 0.254,-0C0.185,-0 0.13,-0.029 0.089,-0.088C0.057,-0.135 0.041,-0.193 0.041,-0.262C0.041,-0.349 0.062,-0.416 0.104,-0.461C0.146,-0.507 0.198,-0.53 0.26,-0.53C0.324,-0.53 0.377,-0.502 0.418,-0.446L0.418,-0.519L0.547,-0.519L0.547,-0.053C0.547,0.008 0.542,0.054 0.532,0.084C0.522,0.114 0.507,0.138 0.489,0.155C0.471,0.173 0.447,0.186 0.416,0.196C0.386,0.206 0.347,0.21 0.301,0.21C0.213,0.21 0.151,0.195 0.114,0.165C0.077,0.135 0.059,0.097 0.059,0.051C0.059,0.046 0.059,0.041 0.059,0.034ZM0.182,-0.27C0.182,-0.215 0.192,-0.175 0.214,-0.149C0.235,-0.124 0.261,-0.111 0.292,-0.111C0.326,-0.111 0.354,-0.124 0.377,-0.15C0.401,-0.176 0.412,-0.215 0.412,-0.267C0.412,-0.32 0.401,-0.36 0.379,-0.386C0.357,-0.412 0.329,-0.425 0.295,-0.425C0.262,-0.425 0.235,-0.413 0.214,-0.387C0.192,-0.361 0.182,-0.322 0.182,-0.27Z" style="fill:rgb(10,0,0);fill-rule:nonzero;"/>
            </g>
            <g transform="matrix(50,0,0,50,1823.67,1367.26)">
                <path d="M0.007,-0.519L0.153,-0.519L0.277,-0.15L0.398,-0.519L0.54,-0.519L0.357,-0.02L0.324,0.071C0.312,0.101 0.301,0.124 0.29,0.14C0.279,0.156 0.266,0.169 0.252,0.179C0.238,0.189 0.221,0.197 0.2,0.202C0.179,0.208 0.156,0.21 0.13,0.21C0.104,0.21 0.078,0.208 0.052,0.202L0.04,0.095C0.062,0.099 0.081,0.101 0.098,0.101C0.13,0.101 0.154,0.092 0.169,0.073C0.184,0.054 0.196,0.03 0.204,0.001L0.007,-0.519Z" style="fill:rgb(10,0,0);fill-rule:nonzero;"/>
            </g>
        </g>
        <g transform="matrix(0.6165,0,0,0.440297,710.749,634.126)">
            <g transform="matrix(1,0,0,1,0,-5.72004)">
                <rect x="1357.82" y="1192.14" width="1.512" height="11.331" style="fill:rgb(0,177,235);"/>
            </g>
            <g transform="matrix(1,0,0,1.36015,2.5,-439.152)">
                <rect x="1357.82" y="1192.14" width="1.512" height="11.331" style="fill:rgb(154,205,86);"/>
            </g>
            <g transform="matrix(1,0,0,1.71068,5,-860.997)">
                <rect x="1357.82" y="1192.14" width="1.512" height="11.331" style="fill:rgb(255,195,16);"/>
            </g>
            <g transform="matrix(1,0,0,1.36351,7.5,-443.197)">
                <rect x="1357.82" y="1192.14" width="1.512" height="11.331" style="fill:rgb(241,96,45);"/>
            </g>
            <g transform="matrix(1,0,0,1.01204,10,-20.2091)">
                <rect x="1357.82" y="1192.14" width="1.512" height="11.331" style="fill:rgb(123,73,160);"/>
            </g>
        </g>
    </g>
    <g id="PORTAL-APIs" serif:id="PORTAL APIs" transform="matrix(1.60934,0,0,1.60934,-209.033,-112.833)">
        <g transform="matrix(0.137496,0,0,0.137496,181.876,128.57)">
            <g transform="matrix(45.8333,0,0,45.8333,210.221,145.183)">
                <path d="M0.718,-0L0.561,-0L0.499,-0.163L0.212,-0.163L0.153,-0L0,-0L0.279,-0.716L0.432,-0.716L0.718,-0ZM0.452,-0.283L0.354,-0.549L0.257,-0.283L0.452,-0.283Z" style="fill:rgb(10,0,0);fill-rule:nonzero;"/>
            </g>
            <g transform="matrix(45.8333,0,0,45.8333,243.321,145.183)">
                <path d="M0.073,-0L0.073,-0.716L0.305,-0.716C0.393,-0.716 0.45,-0.712 0.477,-0.705C0.518,-0.694 0.552,-0.671 0.58,-0.635C0.607,-0.599 0.621,-0.553 0.621,-0.496C0.621,-0.452 0.613,-0.415 0.597,-0.385C0.581,-0.355 0.561,-0.331 0.536,-0.314C0.512,-0.297 0.487,-0.286 0.461,-0.28C0.427,-0.273 0.377,-0.27 0.312,-0.27L0.217,-0.27L0.217,-0L0.073,-0ZM0.217,-0.595L0.217,-0.392L0.296,-0.392C0.353,-0.392 0.391,-0.395 0.411,-0.403C0.43,-0.41 0.445,-0.422 0.456,-0.438C0.467,-0.454 0.472,-0.472 0.472,-0.494C0.472,-0.52 0.465,-0.541 0.449,-0.558C0.434,-0.575 0.415,-0.586 0.391,-0.59C0.374,-0.593 0.339,-0.595 0.287,-0.595L0.217,-0.595Z" style="fill:rgb(10,0,0);fill-rule:nonzero;"/>
            </g>
            <g transform="matrix(45.8333,0,0,45.8333,273.891,145.183)">
                <rect x="0.068" y="-0.716" width="0.145" height="0.716" style="fill:rgb(10,0,0);fill-rule:nonzero;"/>
            </g>
            <g transform="matrix(45.8333,0,0,45.8333,286.625,145.183)">
                <path d="M0.023,-0.148L0.161,-0.169C0.167,-0.142 0.179,-0.122 0.197,-0.108C0.215,-0.094 0.24,-0.087 0.272,-0.087C0.307,-0.087 0.334,-0.094 0.352,-0.107C0.364,-0.116 0.37,-0.128 0.37,-0.144C0.37,-0.154 0.367,-0.163 0.36,-0.169C0.354,-0.176 0.338,-0.182 0.314,-0.188C0.204,-0.212 0.134,-0.234 0.104,-0.254C0.063,-0.282 0.042,-0.321 0.042,-0.371C0.042,-0.416 0.06,-0.454 0.096,-0.484C0.131,-0.515 0.186,-0.53 0.261,-0.53C0.332,-0.53 0.384,-0.519 0.419,-0.496C0.453,-0.472 0.477,-0.438 0.49,-0.393L0.361,-0.369C0.355,-0.389 0.345,-0.405 0.329,-0.416C0.314,-0.426 0.292,-0.432 0.263,-0.432C0.227,-0.432 0.201,-0.427 0.186,-0.417C0.175,-0.409 0.17,-0.4 0.17,-0.389C0.17,-0.379 0.174,-0.371 0.184,-0.364C0.196,-0.355 0.239,-0.342 0.312,-0.325C0.385,-0.309 0.436,-0.288 0.465,-0.264C0.493,-0.24 0.508,-0.206 0.508,-0.162C0.508,-0.115 0.488,-0.074 0.448,-0.04C0.409,-0.005 0.35,0.012 0.272,0.012C0.201,0.012 0.145,-0.003 0.104,-0.031C0.063,-0.06 0.036,-0.099 0.023,-0.148Z" style="fill:rgb(10,0,0);fill-rule:nonzero;"/>
            </g>
        </g>
        <g transform="matrix(0.750573,0,0,1,54.3196,-0.341652)">
            <path d="M215.863,152.422L227.184,152.422" style="fill:none;stroke:rgb(70,119,187);stroke-width:2.5px;"/>
        </g>
        <g transform="matrix(8.09641,0,0,1,-1680.44,0)">
            <g transform="matrix(1,0,0,1,20.2061,-0.341652)">
                <path d="M215.863,152.422L227.184,152.422" style="fill:none;stroke:rgb(70,119,187);stroke-width:0.4px;"/>
            </g>
            <g transform="matrix(1,0,0,1,20.2061,4.27387)">
                <path d="M215.863,152.422L227.184,152.422" style="fill:none;stroke:rgb(101,190,112);stroke-width:0.4px;"/>
            </g>
            <g transform="matrix(1,0,0,1,20.2061,9.43673)">
                <path d="M215.863,152.422L227.184,152.422" style="fill:none;stroke:rgb(239,63,55);stroke-width:0.4px;"/>
            </g>
            <g transform="matrix(1,0,0,1,20.2061,14.2744)">
                <path d="M215.863,152.422L227.184,152.422" style="fill:none;stroke:rgb(75,200,239);stroke-width:0.4px;"/>
            </g>
            <g transform="matrix(1,0,0,1,20.2061,19.1419)">
                <path d="M215.863,152.422L227.184,152.422" style="fill:none;stroke:rgb(251,228,10);stroke-width:0.4px;"/>
            </g>
            <g transform="matrix(1,0,0,1,20.2061,24.0773)">
                <path d="M215.863,152.422L227.184,152.422" style="fill:none;stroke:rgb(174,111,175);stroke-width:0.4px;"/>
            </g>
        </g>
        <g transform="matrix(9.27241,0,0,1,-1784.18,41.4666)">
            <path d="M215.863,152.422L227.184,152.422" style="fill:none;stroke:rgb(158,158,158);stroke-width:0.24px;"/>
        </g>
        <g transform="matrix(9.27241,0,0,1,-1784.18,46.5554)">
            <path d="M215.863,152.422L221.194,152.422" style="fill:none;stroke:rgb(158,158,158);stroke-width:0.24px;"/>
        </g>
        <g transform="matrix(0.750573,0,0,1,54.3196,4.27387)">
            <path d="M215.863,152.422L227.184,152.422" style="fill:none;stroke:rgb(101,190,112);stroke-width:2.5px;"/>
        </g>
        <g transform="matrix(0.750573,0,0,1,54.3196,9.43673)">
            <path d="M215.863,152.422L227.184,152.422" style="fill:none;stroke:rgb(239,63,55);stroke-width:2.5px;"/>
        </g>
        <g transform="matrix(0.750573,0,0,1,54.3196,14.2744)">
            <path d="M215.863,152.422L227.184,152.422" style="fill:none;stroke:rgb(75,200,239);stroke-width:2.5px;"/>
        </g>
        <g transform="matrix(0.750573,0,0,1,54.3196,19.1419)">
            <path d="M215.863,152.422L227.184,152.422" style="fill:none;stroke:rgb(251,228,10);stroke-width:2.5px;"/>
        </g>
        <g transform="matrix(0.750573,0,0,1,54.3196,24.0773)">
            <path d="M215.863,152.422L227.184,152.422" style="fill:none;stroke:rgb(174,111,175);stroke-width:2.5px;"/>
        </g>
    </g>
</svg>
