<svg width="333" height="296" viewBox="0 0 333 296" fill="none" xmlns="http://www.w3.org/2000/svg">
<path fill-rule="evenodd" clip-rule="evenodd" d="M184.638 239.585C235.56 239.585 276.841 198.305 276.841 147.383C276.841 96.4611 235.56 55.1807 184.638 55.1807C133.717 55.1807 92.4362 96.4611 92.4362 147.383C92.4362 198.305 133.717 239.585 184.638 239.585ZM184.638 242.354C237.09 242.354 279.61 199.834 279.61 147.383C279.61 94.9318 237.09 52.4118 184.638 52.4118C132.187 52.4118 89.6672 94.9318 89.6672 147.383C89.6672 199.834 132.187 242.354 184.638 242.354Z" fill="#0054BD" fill-opacity="0.2"/>
<path fill-rule="evenodd" clip-rule="evenodd" d="M180.656 23.408C201.115 23.408 221.258 28.4535 239.301 38.0976C257.344 47.7418 272.73 61.6869 284.096 78.6976C295.462 95.7084 302.458 115.26 304.463 135.62C306.468 155.98 303.421 176.521 295.592 195.422C287.763 214.323 275.393 231.002 259.578 243.981C243.763 256.96 224.992 265.838 204.926 269.829C184.861 273.82 164.121 272.801 144.543 266.863C124.965 260.924 107.154 250.248 92.6879 235.782L91.7993 236.67C92.1258 236.997 92.4539 237.321 92.7837 237.644C107.217 251.762 124.844 262.2 144.178 268.065C163.954 274.064 184.903 275.093 205.172 271.062C225.44 267.03 244.401 258.062 260.375 244.952C276.35 231.842 288.845 214.995 296.753 195.903C304.661 176.81 307.739 156.063 305.713 135.497C303.688 114.931 296.622 95.1821 285.141 77.9995C273.66 60.8169 258.118 46.731 239.893 36.9894C222.075 27.4655 202.229 22.3814 182.041 22.159C181.579 22.1539 181.118 22.1513 180.656 22.1513V23.408Z" fill="#0054BD" fill-opacity="0.2"/>
<path fill-rule="evenodd" clip-rule="evenodd" d="M323.951 41.1629C325.275 40.3983 325.729 38.7048 324.964 37.3805C324.199 36.0561 322.506 35.6024 321.182 36.367L308.248 43.8345C306.923 44.5991 306.469 46.2925 307.234 47.6169C307.999 48.9412 309.692 49.395 311.016 48.6304L323.951 41.1629ZM314.259 0.371427C315.584 1.13604 316.037 2.82949 315.273 4.15384L300.044 30.5313C299.279 31.8557 297.586 32.3095 296.261 31.5448C294.937 30.7802 294.483 29.0868 295.248 27.7624L310.477 1.38492C311.241 0.0605675 312.935 -0.393189 314.259 0.371427ZM276.508 1.75589C278.037 1.75589 279.277 2.99557 279.277 4.52481L279.277 22.5228C279.277 24.052 278.037 25.2917 276.508 25.2917C274.979 25.2917 273.739 24.052 273.739 22.5228L273.739 4.52481C273.739 2.99557 274.979 1.75589 276.508 1.75589Z" fill="#0054BD" fill-opacity="0.2"/>
<path fill-rule="evenodd" clip-rule="evenodd" d="M21.7665 254.273C20.4422 255.037 19.9884 256.731 20.753 258.055C21.5176 259.38 23.2111 259.833 24.5354 259.069L37.4695 251.601C38.7939 250.837 39.2476 249.143 38.483 247.819C37.7184 246.494 36.0249 246.041 34.7006 246.805L21.7665 254.273ZM31.4578 295.064C30.1335 294.3 29.6797 292.606 30.4443 291.282L45.6734 264.904C46.438 263.58 48.1314 263.126 49.4558 263.891C50.7802 264.656 51.2339 266.349 50.4693 267.673L35.2402 294.051C34.4756 295.375 32.7822 295.829 31.4578 295.064ZM69.2094 293.68C67.6802 293.68 66.4405 292.44 66.4405 290.911L66.4405 272.913C66.4405 271.384 67.6802 270.144 69.2094 270.144C70.7387 270.144 71.9783 271.384 71.9783 272.913L71.9783 290.911C71.9783 292.44 70.7387 293.68 69.2094 293.68Z" fill="#0054BD" fill-opacity="0.2"/>
<g filter="url(#filter0_d_30_266)">
<rect x="185.133" y="45.6871" width="102.45" height="83.0676" rx="2" fill="white"/>
<rect x="185.633" y="46.1871" width="101.45" height="82.0676" rx="1.5" stroke="#0054BD"/>
</g>
<path d="M242.625 90.9922C247.656 87.6016 248.203 82.7344 247.711 79.2891C244.266 78.7969 239.398 79.3438 235.953 84.375C234.312 86.7812 232.234 91.375 231.086 93.8906L233 95.8047C235.57 94.7656 240.164 92.6875 242.625 90.9922ZM228.953 92.25H223.812C223.32 92.25 222.883 92.0312 222.664 91.5938C222.391 91.2109 222.445 90.7188 222.664 90.2812L225.508 85.4688C226.219 84.2656 227.531 83.5 228.898 83.5H233.383C233.547 83.2812 233.656 83.1172 233.82 82.8984C238.305 76.2812 244.977 76.0625 248.914 76.8281C249.57 76.9375 250.062 77.4297 250.172 78.0859C250.938 82.0234 250.719 88.6953 244.102 93.1797C243.883 93.3438 243.719 93.4531 243.5 93.6172V98.1016C243.5 99.4688 242.734 100.781 241.531 101.492L236.719 104.336C236.281 104.609 235.789 104.609 235.406 104.336C234.969 104.117 234.75 103.68 234.75 103.242V97.9375C234.258 98.1562 233.82 98.3203 233.492 98.4844C232.836 98.7578 232.07 98.5938 231.578 98.1016L228.789 95.3672C228.297 94.8203 228.133 94.1094 228.461 93.4531C228.57 93.125 228.734 92.6875 228.953 92.25ZM244.812 84.375C244.812 85.1953 244.375 85.9062 243.719 86.2891C243.008 86.6719 242.188 86.6719 241.531 86.2891C240.82 85.9062 240.438 85.1953 240.438 84.375C240.438 83.6094 240.82 82.8984 241.531 82.5156C242.188 82.1328 243.008 82.1328 243.719 82.5156C244.375 82.8984 244.812 83.6094 244.812 84.375Z" fill="#0155BD"/>
<path d="M185.133 47.6871C185.133 46.5826 186.029 45.6871 187.133 45.6871H285.583C286.688 45.6871 287.583 46.5826 287.583 47.6871V53.9939H185.133V47.6871Z" fill="#004498"/>
<g filter="url(#filter1_d_30_266)">
<rect x="56.3784" y="161.982" width="102.45" height="83.0676" rx="2" fill="white"/>
<rect x="56.8784" y="162.482" width="101.45" height="82.0676" rx="1.5" stroke="#0054BD"/>
</g>
<path d="M100.5 215.875H114.5C114.938 215.875 115.375 215.492 115.375 215V199.25H111C110.016 199.25 109.25 198.484 109.25 197.5V193.125H100.5C100.008 193.125 99.625 193.562 99.625 194V215C99.625 215.492 100.008 215.875 100.5 215.875ZM100.5 190.5H109.523C110.453 190.5 111.328 190.883 111.984 191.539L116.961 196.516C117.617 197.172 118 198.047 118 198.977V215C118 216.969 116.414 218.5 114.5 218.5H100.5C98.5312 218.5 97 216.969 97 215V194C97 192.086 98.5312 190.5 100.5 190.5ZM103.562 204.5H111.438C112.148 204.5 112.75 205.102 112.75 205.812C112.75 206.578 112.148 207.125 111.438 207.125H103.562C102.797 207.125 102.25 206.578 102.25 205.812C102.25 205.102 102.797 204.5 103.562 204.5ZM103.562 209.75H111.438C112.148 209.75 112.75 210.352 112.75 211.062C112.75 211.828 112.148 212.375 111.438 212.375H103.562C102.797 212.375 102.25 211.828 102.25 211.062C102.25 210.352 102.797 209.75 103.562 209.75Z" fill="#0155BD"/>
<path d="M56.3784 163.982C56.3784 162.877 57.2738 161.982 58.3784 161.982H156.828C157.933 161.982 158.828 162.877 158.828 163.982V170.289H56.3784V163.982Z" fill="#004498"/>
<g filter="url(#filter2_d_30_266)">
<rect x="1" y="19.5866" width="157.828" height="110.757" rx="2" fill="white"/>
<rect x="1.5" y="20.0866" width="156.828" height="109.757" rx="1.5" stroke="#0054BD"/>
</g>
<path d="M1 21.3824C1 20.2779 1.89543 19.3824 3 19.3824H156.828C157.933 19.3824 158.828 20.2779 158.828 21.3824V27.6892H1V21.3824Z" fill="#004498"/>
<g filter="url(#filter3_d_30_266)">
<rect x="185.133" y="160.802" width="138.446" height="110.757" rx="2" fill="white"/>
<rect x="185.633" y="161.302" width="137.446" height="109.757" rx="1.5" stroke="#0054BD"/>
</g>
<path d="M185.133 162.802C185.133 161.697 186.029 160.802 187.133 160.802H321.579C322.684 160.802 323.579 161.697 323.579 162.802V169.109H185.133V162.802Z" fill="#004498"/>
<path d="M87.6367 52.8398C88.3555 53.1094 88.8047 53.918 88.5352 54.6367L74.1602 97.7617C73.8906 98.5703 73.082 98.9297 72.3633 98.75C71.5547 98.4805 71.1953 97.6719 71.375 96.8633L85.75 53.7383C86.0195 53.0195 86.8281 52.5703 87.6367 52.8398ZM66.7031 63.3516H66.6133C67.1523 63.8906 67.1523 64.8789 66.5234 65.3281L54.8438 75.75L66.5234 86.2617C67.1523 86.7109 67.1523 87.6992 66.7031 88.2383C66.1641 88.8672 65.2656 88.8672 64.6367 88.3281L51.6992 76.8281C51.4297 76.5586 51.25 76.1992 51.25 75.75C51.25 75.3906 51.4297 75.0312 51.6992 74.7617L64.6367 63.2617C65.2656 62.7227 66.1641 62.7227 66.7031 63.3516ZM93.2969 63.3516C93.8359 62.7227 94.7344 62.6328 95.2734 63.1719L108.211 74.6719C108.57 74.9414 108.75 75.3906 108.75 75.75C108.75 76.1992 108.57 76.5586 108.211 76.8281L95.2734 88.3281C94.7344 88.8672 93.8359 88.8672 93.2969 88.2383C92.7578 87.6094 92.7578 86.7109 93.3867 86.1719L105.066 75.75L93.3867 65.3281C92.7578 64.8789 92.7578 63.8906 93.2969 63.3516Z" fill="#0155BD"/>
<path d="M243.938 196.625C239.895 196.625 236.75 199.859 236.75 203.812C236.75 203.902 236.75 203.902 236.75 203.992C236.75 204.441 236.48 204.801 236.211 205.07C235.852 205.34 235.402 205.52 234.953 205.43C234.594 205.34 234.234 205.25 233.875 205.25C230.641 205.25 228.125 207.855 228.125 211C228.125 214.234 230.641 216.75 233.875 216.75H240.344C239.984 217.738 239.805 218.637 239.625 219.625H233.875C229.113 219.625 225.25 215.762 225.25 211C225.25 206.238 229.113 202.375 233.875 202.375H233.965C234.594 197.523 238.816 193.75 243.938 193.75C248.16 193.75 251.844 196.535 253.281 200.309C254.359 199.77 255.617 199.5 256.875 199.5C261.637 199.5 265.5 203.363 265.5 208.125C265.5 209.203 265.32 210.191 264.961 211.09C263.703 211.09 262.535 211.359 261.457 211.719H261.367C262.176 210.73 262.625 209.473 262.625 208.125C262.625 204.98 260.02 202.375 256.875 202.375C255.527 202.375 254.27 202.824 253.281 203.633C252.922 203.902 252.383 203.992 251.844 203.812C251.395 203.633 251.035 203.184 251.035 202.734C250.496 199.32 247.441 196.625 243.938 196.625ZM245.375 221.062C245.375 221.602 245.375 222.051 245.465 222.5C245.645 223.219 245.195 223.938 244.387 224.207C241.602 224.926 239.625 227.441 239.625 230.406C239.625 234 242.5 236.875 246.094 236.875H273.406C276.91 236.875 279.875 234 279.875 230.406C279.875 226.812 276.91 223.938 273.406 223.938C273.137 223.938 272.957 223.938 272.777 224.027C272.418 224.027 271.969 223.848 271.699 223.578C271.34 223.309 271.25 222.949 271.25 222.59V222.5C271.25 219.355 268.645 216.75 265.5 216.75C263.883 216.75 262.445 217.469 261.367 218.457C261.008 218.816 260.559 218.996 260.109 218.906C259.66 218.816 259.211 218.547 259.031 218.098C257.863 215.582 255.438 213.875 252.562 213.875C248.52 213.875 245.375 217.109 245.375 221.062ZM282.75 230.406C282.75 235.617 278.527 239.75 273.406 239.75H246.094C240.883 239.75 236.75 235.617 236.75 230.406C236.75 226.543 239.086 223.219 242.5 221.781C242.5 221.602 242.5 221.332 242.5 221.062C242.5 215.582 246.992 211 252.562 211C255.887 211 258.941 212.707 260.738 215.312C262.086 214.414 263.703 213.875 265.5 213.875C269.723 213.875 273.316 217.02 273.945 221.152C278.887 221.422 282.75 225.465 282.75 230.406Z" fill="#0155BD"/>
<defs>
<filter id="filter0_d_30_266" x="184.133" y="44.6871" width="112.45" height="93.0676" filterUnits="userSpaceOnUse" color-interpolation-filters="sRGB">
<feFlood flood-opacity="0" result="BackgroundImageFix"/>
<feColorMatrix in="SourceAlpha" type="matrix" values="0 0 0 0 0 0 0 0 0 0 0 0 0 0 0 0 0 0 127 0" result="hardAlpha"/>
<feOffset dx="4" dy="4"/>
<feGaussianBlur stdDeviation="2.5"/>
<feComposite in2="hardAlpha" operator="out"/>
<feColorMatrix type="matrix" values="0 0 0 0 0 0 0 0 0 0.337255 0 0 0 0 0.721569 0 0 0 0.2 0"/>
<feBlend mode="multiply" in2="BackgroundImageFix" result="effect1_dropShadow_30_266"/>
<feBlend mode="normal" in="SourceGraphic" in2="effect1_dropShadow_30_266" result="shape"/>
</filter>
<filter id="filter1_d_30_266" x="55.3784" y="160.982" width="112.45" height="93.0676" filterUnits="userSpaceOnUse" color-interpolation-filters="sRGB">
<feFlood flood-opacity="0" result="BackgroundImageFix"/>
<feColorMatrix in="SourceAlpha" type="matrix" values="0 0 0 0 0 0 0 0 0 0 0 0 0 0 0 0 0 0 127 0" result="hardAlpha"/>
<feOffset dx="4" dy="4"/>
<feGaussianBlur stdDeviation="2.5"/>
<feComposite in2="hardAlpha" operator="out"/>
<feColorMatrix type="matrix" values="0 0 0 0 0 0 0 0 0 0.337255 0 0 0 0 0.721569 0 0 0 0.2 0"/>
<feBlend mode="multiply" in2="BackgroundImageFix" result="effect1_dropShadow_30_266"/>
<feBlend mode="normal" in="SourceGraphic" in2="effect1_dropShadow_30_266" result="shape"/>
</filter>
<filter id="filter2_d_30_266" x="0" y="18.5866" width="167.828" height="120.757" filterUnits="userSpaceOnUse" color-interpolation-filters="sRGB">
<feFlood flood-opacity="0" result="BackgroundImageFix"/>
<feColorMatrix in="SourceAlpha" type="matrix" values="0 0 0 0 0 0 0 0 0 0 0 0 0 0 0 0 0 0 127 0" result="hardAlpha"/>
<feOffset dx="4" dy="4"/>
<feGaussianBlur stdDeviation="2.5"/>
<feComposite in2="hardAlpha" operator="out"/>
<feColorMatrix type="matrix" values="0 0 0 0 0 0 0 0 0 0.337255 0 0 0 0 0.721569 0 0 0 0.2 0"/>
<feBlend mode="multiply" in2="BackgroundImageFix" result="effect1_dropShadow_30_266"/>
<feBlend mode="normal" in="SourceGraphic" in2="effect1_dropShadow_30_266" result="shape"/>
</filter>
<filter id="filter3_d_30_266" x="184.133" y="159.802" width="148.446" height="120.757" filterUnits="userSpaceOnUse" color-interpolation-filters="sRGB">
<feFlood flood-opacity="0" result="BackgroundImageFix"/>
<feColorMatrix in="SourceAlpha" type="matrix" values="0 0 0 0 0 0 0 0 0 0 0 0 0 0 0 0 0 0 127 0" result="hardAlpha"/>
<feOffset dx="4" dy="4"/>
<feGaussianBlur stdDeviation="2.5"/>
<feComposite in2="hardAlpha" operator="out"/>
<feColorMatrix type="matrix" values="0 0 0 0 0 0 0 0 0 0.337255 0 0 0 0 0.721569 0 0 0 0.2 0"/>
<feBlend mode="multiply" in2="BackgroundImageFix" result="effect1_dropShadow_30_266"/>
<feBlend mode="normal" in="SourceGraphic" in2="effect1_dropShadow_30_266" result="shape"/>
</filter>
</defs>
</svg>