<svg width="17" height="13" viewBox="0 0 17 13" fill="none" xmlns="http://www.w3.org/2000/svg">
<path d="M15.3604 6.74485L12.2979 9.80735C10.7666 11.3659 8.25098 11.3659 6.71973 9.80735C5.35254 8.44016 5.16113 6.30735 6.28223 4.72141L6.30957 4.69407C6.61035 4.28391 7.15723 4.20188 7.54004 4.47532C7.92285 4.74875 8.03223 5.29563 7.73145 5.70579L7.7041 5.73313C7.0752 6.60813 7.18457 7.81125 7.9502 8.57688C8.79785 9.45188 10.1924 9.45188 11.0674 8.57688L14.1299 5.51438C15.0049 4.63938 15.0049 3.24485 14.1299 2.39719C13.3643 1.63157 12.1611 1.52219 11.2861 2.1511L11.2588 2.17844C10.8486 2.47922 10.3018 2.36985 10.0283 1.98704C9.75488 1.60422 9.83691 1.05735 10.2197 0.756567L10.2744 0.729223C11.8604 -0.391871 13.9932 -0.200464 15.3604 1.16672C16.9189 2.69797 16.9189 5.2136 15.3604 6.74485ZM1.16895 6.11594L4.23145 3.0261C5.79004 1.49485 8.27832 1.49485 9.83691 3.0261C11.2041 4.39329 11.3682 6.55344 10.2471 8.13938L10.2197 8.16672C9.94629 8.57688 9.37207 8.65891 8.98926 8.38547C8.60645 8.11204 8.49707 7.56516 8.79785 7.155L8.8252 7.12766C9.4541 6.22532 9.34473 5.04954 8.5791 4.28391C7.73145 3.40891 6.33691 3.40891 5.46191 4.28391L2.39941 7.34641C1.55176 8.19407 1.55176 9.5886 2.39941 10.4636C3.16504 11.2292 4.36816 11.3386 5.24316 10.7097L5.27051 10.6823C5.68066 10.3816 6.22754 10.4909 6.50098 10.8738C6.77441 11.2566 6.69238 11.8034 6.30957 12.1042L6.25488 12.1316C4.69629 13.2527 2.53613 13.0613 1.16895 11.6941C-0.389648 10.1628 -0.389648 7.64719 1.16895 6.11594Z" fill="#2c9ede"/>
</svg>